<?xml version="1.0" encoding="utf-8"?>
<!-- Generator: Adobe Illustrator 24.1.2, SVG Export Plug-In . SVG Version: 6.00 Build 0)  -->
<svg version="1.1" id="Layer_1" xmlns="http://www.w3.org/2000/svg" xmlns:xlink="http://www.w3.org/1999/xlink" x="0px" y="0px"
	 viewBox="0 0 64 64" style="enable-background:new 0 0 64 64;" xml:space="preserve">
<style type="text/css">
	.st0{fill:#D8D8D8;}
	.st1{fill:#5B5B5B;}
</style>
<rect class="st0" width="64" height="64"/>
<path class="st1" d="M34.4,31.5c2-1,3.4-3.1,3.4-5.5c0-3.4-2.8-6.2-6.2-6.2s-6.2,2.8-6.2,6.2c0,2.4,1.3,4.4,3.3,5.5
	c-4.1,1.2-7,4.9-7,9.4v2.8c0,0.3,0.3,0.6,0.6,0.6h18.4c0.3,0,0.6-0.2,0.6-0.6v-2.8C41.2,36.5,38.4,32.8,34.4,31.5z M26.6,26
	c0-2.8,2.3-5.1,5.1-5.1s5.1,2.3,5.1,5.1s-2.3,5.1-5.1,5.1S26.6,28.8,26.6,26z M40.1,40.8v2.3H22.9v-2.3c0-4.8,3.9-8.6,8.6-8.6
	C36.3,32.2,40.1,36.1,40.1,40.8z"/>
</svg>
