<svg xmlns="http://www.w3.org/2000/svg" width="16.594" height="19.405" viewBox="0 0 16.594 19.405">
  <g id="login" transform="translate(-131 -568.5)">
    <path id="Path_37" data-name="Path 37" d="M197.062,1125h-1.405a6.324,6.324,0,0,0-6.282,5.621h13.969A6.324,6.324,0,0,0,197.062,1125Z" transform="translate(-57.062 -543.987)" fill="none"/>
    <circle id="Ellipse_14" data-name="Ellipse 14" cx="3.513" cy="3.513" r="3.513" transform="translate(135.784 569.77)" fill="none"/>
    <path id="Path_38" data-name="Path 38" d="M290.172,577.692a4.8,4.8,0,1,0-1.521-1.025A4.753,4.753,0,0,0,290.172,577.692Zm1.862-8.056a3.648,3.648,0,1,1-3.648,3.648A3.652,3.652,0,0,1,292.034,569.635Z" transform="translate(-152.737)" fill="#9a6728"/>
    <path id="Path_39" data-name="Path 39" d="M147,1073.138a7.588,7.588,0,0,0-7-4.638h-1.405a7.588,7.588,0,0,0-7.594,7.594.568.568,0,0,0,.568.568h15.459a.568.568,0,0,0,.568-.568A7.547,7.547,0,0,0,147,1073.138Zm-.716,2.388h-14.12l.017-.15a6.454,6.454,0,0,1,6.416-5.741H140a6.454,6.454,0,0,1,6.416,5.741l.017.15Z" transform="translate(0 -488.757)" fill="#9a6728"/>
  </g>
</svg>
