<svg xmlns="http://www.w3.org/2000/svg" width="18.788" height="16.43" viewBox="0 0 18.788 16.43">
  <g id="save" transform="translate(-8.1 -11.1)">
    <g id="Icon-Heart" transform="translate(8.1 11.1)">
      <path id="Fill-18" d="M-160.506-202.47l-.314-.275c-7.154-5.817-9.08-7.861-9.08-11.2a4.957,4.957,0,0,1,4.952-4.952,5.677,5.677,0,0,1,4.442,2.28,5.677,5.677,0,0,1,4.442-2.28,4.957,4.957,0,0,1,4.952,4.952c0,3.341-1.926,5.385-9.08,11.2l-.314.275Zm-4.442-15.408a3.942,3.942,0,0,0-3.931,3.931c0,2.869,1.808,4.756,8.372,10.141,6.564-5.385,8.372-7.272,8.372-10.141a3.942,3.942,0,0,0-3.931-3.931,4.907,4.907,0,0,0-3.852,2.123l-.59.668-.59-.668a4.907,4.907,0,0,0-3.852-2.123Z" transform="translate(169.9 218.9)" fill="#9a6728"/>
    </g>
  </g>
</svg>
