<svg width="27" height="27" viewBox="0 0 27 27" fill="none" xmlns="http://www.w3.org/2000/svg">
<path d="M13.5 0C9.83359 0 9.37385 0.0155566 7.93394 0.0812637C6.49703 0.146812 5.51565 0.374994 4.65692 0.70875C3.76919 1.05374 3.0163 1.51537 2.26584 2.26589C1.51532 3.01635 1.05369 3.76924 0.708697 4.65697C0.374941 5.51565 0.14676 6.49703 0.0812109 7.93394C0.0155039 9.37385 0 9.83359 0 13.5C0 17.1663 0.0155039 17.626 0.0812109 19.066C0.14676 20.5029 0.374941 21.4842 0.708697 22.3429C1.05369 23.2307 1.51532 23.9835 2.26584 24.7341C3.0163 25.4846 3.76919 25.9462 4.65692 26.2912C5.51565 26.6249 6.49703 26.8531 7.93394 26.9187C9.37385 26.9843 9.83359 26.9999 13.5 26.9999C17.1663 26.9999 17.626 26.9843 19.066 26.9187C20.5029 26.8531 21.4842 26.6249 22.3429 26.2912C23.2307 25.9462 23.9835 25.4846 24.7341 24.7341C25.4846 23.9835 25.9462 23.2307 26.2912 22.3429C26.6249 21.4842 26.8531 20.5029 26.9187 19.066C26.9843 17.626 26.9999 17.1663 26.9999 13.5C26.9999 9.83359 26.9843 9.37385 26.9187 7.93394C26.8531 6.49703 26.6249 5.51565 26.2912 4.65697C25.9462 3.76924 25.4846 3.01635 24.7341 2.26589C23.9835 1.51537 23.2307 1.05374 22.3429 0.70875C21.4842 0.374994 20.5029 0.146812 19.066 0.0812637C17.626 0.0155566 17.1663 0 13.5 0V0ZM13.5 2.43248C17.1046 2.43248 17.5316 2.44619 18.9551 2.51116C20.2713 2.57122 20.9861 2.79112 21.4618 2.97596C22.092 3.22086 22.5417 3.51343 23.0141 3.98582C23.4865 4.45822 23.779 4.90799 24.0239 5.53806C24.2088 6.01378 24.4287 6.72859 24.4888 8.04479C24.5537 9.46835 24.5675 9.89534 24.5675 13.5C24.5675 17.1046 24.5537 17.5316 24.4888 18.9551C24.4287 20.2713 24.2088 20.9861 24.0239 21.4618C23.779 22.092 23.4865 22.5417 23.0141 23.0141C22.5417 23.4865 22.092 23.779 21.4618 24.0239C20.9861 24.2088 20.2713 24.4287 18.9551 24.4887C17.5318 24.5537 17.1049 24.5675 13.5 24.5675C9.89503 24.5675 9.46819 24.5537 8.04479 24.4887C6.72859 24.4287 6.01378 24.2088 5.53806 24.0239C4.90794 23.779 4.45822 23.4865 3.98577 23.0141C3.51338 22.5417 3.2208 22.092 2.97596 21.4618C2.79107 20.9861 2.57117 20.2713 2.51111 18.9551C2.44614 17.5316 2.43243 17.1046 2.43243 13.5C2.43243 9.89534 2.44614 9.46835 2.51111 8.04479C2.57117 6.72859 2.79107 6.01378 2.97596 5.53806C3.2208 4.90799 3.51338 4.45822 3.98577 3.98582C4.45822 3.51343 4.90794 3.22086 5.53806 2.97596C6.01378 2.79112 6.72859 2.57122 8.04479 2.51116C9.46835 2.44619 9.89534 2.43248 13.5 2.43248Z" fill="url(#paint0_linear_38_435)"/>
<path d="M13.5 18C11.0146 18 8.99993 15.9853 8.99993 13.5001C8.99993 11.0148 11.0146 9.00005 13.5 9.00005C15.9852 9.00005 17.9999 11.0148 17.9999 13.5001C17.9999 15.9853 15.9852 18 13.5 18ZM13.5 6.56763C9.67124 6.56763 6.5675 9.67136 6.5675 13.5001C6.5675 17.3287 9.67124 20.4324 13.5 20.4324C17.3286 20.4324 20.4323 17.3287 20.4323 13.5001C20.4323 9.67136 17.3286 6.56763 13.5 6.56763Z" fill="url(#paint1_linear_38_435)"/>
<path d="M22.3263 6.29353C22.3263 7.18828 21.601 7.91353 20.7063 7.91353C19.8116 7.91353 19.0863 7.18828 19.0863 6.29353C19.0863 5.39884 19.8116 4.67358 20.7063 4.67358C21.601 4.67358 22.3263 5.39884 22.3263 6.29353Z" fill="url(#paint2_linear_38_435)"/>
<defs>
<linearGradient id="paint0_linear_38_435" x1="15.863" y1="-1.43059" x2="7.97301" y2="24.636" gradientUnits="userSpaceOnUse">
<stop stop-color="#515BD4"/>
<stop offset="0.26" stop-color="#9510B8"/>
<stop offset="0.66" stop-color="#E51804"/>
<stop offset="1" stop-color="#FEDA77"/>
</linearGradient>
<linearGradient id="paint1_linear_38_435" x1="15.863" y1="-1.43051" x2="7.97298" y2="24.6361" gradientUnits="userSpaceOnUse">
<stop stop-color="#515BD4"/>
<stop offset="0.26" stop-color="#9510B8"/>
<stop offset="0.66" stop-color="#E51804"/>
<stop offset="1" stop-color="#FFBF00"/>
</linearGradient>
<linearGradient id="paint2_linear_38_435" x1="15.8631" y1="-1.4307" x2="7.97306" y2="24.6359" gradientUnits="userSpaceOnUse">
<stop stop-color="#515BD4"/>
<stop offset="0.26" stop-color="#9510B8"/>
<stop offset="0.66" stop-color="#E51804"/>
<stop offset="1" stop-color="#FFBF00"/>
</linearGradient>
</defs>
</svg>
