<svg width="20" height="20" viewBox="0 0 20 20" fill="none" xmlns="http://www.w3.org/2000/svg">
<path d="M14.2438 16.0755C13.2084 16.0574 12.3837 15.2034 12.4018 14.168C12.4199 13.1327 13.2739 12.308 14.3092 12.326C15.3446 12.3441 16.1693 13.1981 16.1512 14.2335C16.1332 15.2689 15.2792 16.0935 14.2438 16.0755Z" fill="white"/>
<path d="M5.49514 15.9228C4.45977 15.9047 3.63508 15.0507 3.65315 14.0153C3.67122 12.9799 4.52521 12.1553 5.56059 12.1733C6.59596 12.1914 7.42065 13.0454 7.40258 14.0808C7.38451 15.1161 6.53052 15.9408 5.49514 15.9228Z" fill="white"/>
<path d="M1.44218 1.19604C1.60067 0.890008 1.97844 0.770333 2.28445 0.930073L4.76163 2.2235C4.97413 2.33285 5.10284 2.55138 5.09868 2.78947L5.08777 3.41438L17.3447 3.62832L17.6334 2.81011C17.7484 2.48394 18.1052 2.31389 18.4314 2.42898C18.7563 2.54404 18.9263 2.90081 18.8113 3.22636L18.8125 3.22638L16.1814 10.6816C16.0919 10.9363 15.8509 11.1028 15.5809 11.0981L4.33136 10.9017C4.16514 10.8988 4.00941 10.8317 3.89336 10.7115C3.77732 10.5913 3.71507 10.4334 3.71797 10.2671L3.84213 3.15385L1.70691 2.03766C1.40213 1.87919 1.28246 1.5008 1.44218 1.19604ZM15.1534 9.8404L16.9067 4.87024L5.06659 4.66357L4.97933 9.66281L15.1534 9.8404Z" fill="white"/>
</svg>
