<svg width="24" height="24" viewBox="0 0 24 24" fill="none" xmlns="http://www.w3.org/2000/svg">
<path d="M1.56522 3.05213C3.57445 5.62577 7.17185 8.05427 12 8.31537C11.7337 7.19785 11.7081 4.16465 13.8132 2.90405C14.7548 2.34018 15.646 2 16.6961 2C18.0153 2 19.0982 2.4562 20.25 3.56606C21.1875 3.42836 22.9389 2.66914 23.3544 2.37091C23.0839 3.4174 22.0015 4.7611 21.2195 5.08014C21.9375 5.0779 23.5163 4.64532 24 4.38972C23.3289 5.4777 22.1569 6.51994 21.5157 6.95251C22.2582 13.6571 16.3341 21.9916 7.8261 22C5.39643 22.0024 2.75604 21.482 0 19.8945C2.71876 20.2157 5.63177 19.3273 7.30435 17.7892C5.19497 17.7411 3.05852 16.3072 2.08696 14.1049C3.14383 14.4369 4.11823 14.6052 4.69565 14.1049C3.71132 13.9935 0.521739 12.2314 0.521739 8.81865C1.25472 9.43043 2.31007 10.0626 3.13043 9.89434C1.78807 9.0925 -0.162783 6.03878 1.56522 3.05213Z" fill="#1BA8E1"/>
<path opacity="0.2" d="M12.0432 8.57029C12.0262 8.49931 12.0145 8.40092 12 8.31547C7.19427 8.04197 3.5683 5.61792 1.56525 3.05225C1.08264 3.88635 0.894165 4.724 0.89209 5.51807C0.931274 4.79944 1.13336 4.04871 1.56525 3.30225C3.57446 5.87585 7.21503 8.30925 12.0432 8.57029Z" fill="white"/>
<path opacity="0.2" d="M13.8131 3.15405C14.7547 2.59021 15.646 2.25 16.696 2.25C18.0153 2.25 19.0982 2.70624 20.25 3.8161C21.1287 3.68701 22.7085 3.0166 23.2469 2.68677C23.2879 2.58002 23.3279 2.47321 23.3543 2.37091C22.9388 2.66919 21.1875 3.42841 20.25 3.5661C19.0982 2.45624 18.0153 2 16.696 2C15.646 2 14.7547 2.34021 13.8131 2.90405C12.1965 3.87219 11.8401 5.87897 11.8807 7.26739C11.8895 5.89679 12.2913 4.06543 13.8131 3.15405Z" fill="white"/>
<path opacity="0.1" d="M21.5039 6.71095C21.5127 6.79042 21.5087 6.87257 21.5157 6.95247C22.1592 6.51564 23.3326 5.47174 24 4.38989C23.9371 4.4231 23.8544 4.45947 23.7588 4.49738C23.0745 5.45007 22.0743 6.32613 21.5039 6.71095Z" fill="#010101"/>
<path opacity="0.1" d="M0.536987 8.83948C0.532105 8.83545 0.52655 8.83142 0.521729 8.82739C0.521729 11.9506 3.21176 13.7584 4.69565 14.1049C4.80326 14.0576 4.90549 14.001 4.99515 13.9233C4.03678 13.8148 0.697266 12.0773 0.536987 8.83948Z" fill="#010101"/>
<path opacity="0.1" d="M7.82611 21.7501C5.55414 21.7523 3.09644 21.2854 0.533752 19.9283C0.355652 19.9175 0.176819 19.9155 0 19.8946C2.75604 21.4821 5.39642 22.0024 7.82611 22.0001C15.8631 21.9922 21.5867 14.5558 21.5707 8.08081C21.4407 14.4956 15.7596 21.7422 7.82611 21.7501Z" fill="#010101"/>
<path opacity="0.1" d="M2.24341 14.16C2.1911 14.1443 2.13971 14.1304 2.08691 14.1138C3.01587 16.2194 5.02938 17.6932 7.30429 17.7892C7.39535 17.7146 7.49649 17.646 7.58133 17.5679C5.57101 17.5221 3.27106 16.1887 2.24341 14.16Z" fill="#010101"/>
<path d="M1.56522 3.05213C3.57445 5.62577 7.17185 8.05427 12 8.31537C11.7337 7.19785 11.7081 4.16465 13.8132 2.90405C14.7548 2.34018 15.646 2 16.6961 2C18.0153 2 19.0982 2.4562 20.25 3.56606C21.1875 3.42836 22.9389 2.66914 23.3544 2.37091C23.0839 3.4174 22.0015 4.7611 21.2195 5.08014C21.9375 5.0779 23.5163 4.64532 24 4.38972C23.3289 5.4777 22.1569 6.51994 21.5157 6.95251C22.2582 13.6571 16.3341 21.9916 7.8261 22C5.39643 22.0024 2.75604 21.482 0 19.8945C2.71876 20.2157 5.63177 19.3273 7.30435 17.7892C5.19497 17.7411 3.05852 16.3072 2.08696 14.1049C3.14383 14.4369 4.11823 14.6052 4.69565 14.1049C3.71132 13.9935 0.521739 12.2314 0.521739 8.81865C1.25472 9.43043 2.31007 10.0626 3.13043 9.89434C1.78807 9.0925 -0.162783 6.03878 1.56522 3.05213Z" fill="url(#paint0_linear_38_440)"/>
<defs>
<linearGradient id="paint0_linear_38_440" x1="0.243782" y1="5.8361" x2="19.6894" y2="14.9037" gradientUnits="userSpaceOnUse">
<stop stop-color="white" stop-opacity="0.2"/>
<stop offset="1" stop-color="white" stop-opacity="0"/>
</linearGradient>
</defs>
</svg>
