<svg width="48" height="48" viewBox="0 0 48 48" fill="none" xmlns="http://www.w3.org/2000/svg">
<rect width="48" height="48" rx="24" fill="#DBDBDB"/>
<path d="M32.4 19.8C32.4 20.2795 32.3517 20.7476 32.2599 21.2H33.3309C34.3633 21.2 35.2 22.0368 35.2 23.0691V28.2C35.2 32.066 32.066 35.2 28.2 35.2C26.5192 35.2 24.9767 34.6075 23.77 33.6201L22.3951 34.995C22.1218 35.2683 21.6785 35.2683 21.4052 34.995C21.1318 34.7216 21.1318 34.2784 21.4052 34.005L22.78 32.6302C22.3201 32.0681 21.9458 31.4333 21.6772 30.7455C21.0798 30.9114 20.4503 31 19.8 31C15.9341 31 12.8 27.866 12.8 24V18.8691C12.8 17.8368 13.6369 17 14.6691 17H18.9825C20.0626 14.5277 22.5295 12.8 25.4 12.8H30.5309C31.5631 12.8 32.4 13.6368 32.4 14.6691V19.8ZM20.5278 17.0374C23.1776 17.3111 25.3888 19.063 26.3228 21.4546C26.9203 21.2887 27.5497 21.2 28.2 21.2H30.8235C30.9387 20.7525 31 20.2834 31 19.8V14.6691C31 14.41 30.79 14.2 30.5309 14.2H25.4C23.3118 14.2 21.4906 15.3429 20.5278 17.0374ZM24.7661 32.624C25.7145 33.3611 26.906 33.8 28.2 33.8C31.2928 33.8 33.8 31.2927 33.8 28.2V23.0691C33.8 22.81 33.59 22.6 33.3309 22.6H28.2C25.1073 22.6 22.6 25.1073 22.6 28.2C22.6 29.4942 23.039 30.6857 23.7762 31.6341L28.4051 27.005C28.6786 26.7317 29.1218 26.7317 29.3951 27.005C29.6685 27.2784 29.6685 27.7216 29.3951 27.995L24.7661 32.624ZM21.2 28.2C21.2 27.642 21.2654 27.099 21.3888 26.5787L17.9051 23.095C17.6317 22.8217 17.6317 22.3785 17.9051 22.1051C18.1784 21.8317 18.6217 21.8317 18.895 22.1051L21.9115 25.1215C22.578 23.7627 23.672 22.6515 25.0181 21.9633C24.2035 19.8776 22.1743 18.4 19.8 18.4H14.6691C14.4101 18.4 14.2 18.61 14.2 18.8691V24C14.2 27.0927 16.7073 29.6 19.8 29.6C20.3203 29.6 20.8239 29.529 21.3019 29.3963C21.2349 29.0075 21.2 28.6078 21.2 28.2Z" fill="#454545"/>
</svg>
