<svg width="34" height="24" viewBox="0 0 34 24" fill="none" xmlns="http://www.w3.org/2000/svg">
<path d="M33.585 10.6262C33.5753 10.921 33.5661 11.2163 33.5589 11.5111C33.5123 13.2209 33.4909 14.9329 33.3955 16.6427C33.3027 18.3118 32.7588 19.8548 32.1036 21.3794C31.8789 21.9032 31.3228 22.3307 30.8222 22.6504C29.9881 23.1829 28.87 23.3001 27.9116 23.3707C26.6293 23.4656 25.3433 23.4631 24.0585 23.4958C22.4999 23.5353 20.9396 23.3854 19.386 23.482C17.8341 23.579 16.2574 23.5861 14.7022 23.5912C12.913 23.5966 11.1255 23.5441 9.33752 23.5223C8.45636 23.5122 7.57394 23.5088 6.69194 23.524C5.9519 23.5374 4.66418 23.4589 3.97328 23.1754C2.59274 22.6096 2.21684 21.9847 1.47386 20.6528C1.09166 19.9682 0.942985 19.208 0.893845 18.4193C0.845545 17.6326 0.490225 16.8922 0.511645 16.111C0.544405 14.8988 0.397825 13.6955 0.399925 12.4855C0.406645 9.22884 0.377665 5.94528 1.7771 2.9637L2.10092 2.39628C2.32562 2.09472 2.41004 1.69152 2.67086 1.43238C3.20468 0.898977 4.2719 0.795657 4.9775 0.709137C5.85782 0.601197 6.74696 0.599097 7.63022 0.527277C9.08552 0.409257 10.6089 0.565077 12.0658 0.491997C13.5291 0.418917 14.9764 0.386159 16.4431 0.424379C20.0131 0.518459 23.5726 0.276119 27.1392 0.534839C28.6059 0.641099 30.4425 0.318119 31.5089 1.54452C32.4925 2.67684 32.8764 4.17582 33.1801 5.60886C33.5278 7.25064 33.6433 8.94912 33.585 10.6262ZM20.7472 10.2263C20.2453 9.88656 19.7006 9.62112 19.1756 9.32166C18.1075 8.71182 17.0815 7.99866 16.0386 7.3422C15.7673 7.17168 13.7278 6.18384 13.7278 6.18384C13.7555 7.03434 13.7362 7.81134 13.7064 8.62488C13.6753 9.47832 13.7131 10.3313 13.6996 11.1852C13.6912 11.6951 13.6954 15.7628 13.6938 16.5536C13.6929 16.6901 13.6938 17.678 13.6938 17.9245C13.9546 17.7578 14.3141 17.5864 14.569 17.4121C15.0491 17.0858 15.5208 16.7498 15.997 16.415C16.496 16.0652 17.0298 15.7838 17.5565 15.4805C18.6153 14.8715 19.4868 14.0076 20.5746 13.4431C21.4251 13.0017 22.2151 12.4805 23.0308 11.9824C22.9703 12.0206 21.2025 10.5359 20.7472 10.2263Z" fill="#C12025"/>
</svg>
